<?xml version="1.0" encoding="UTF-8" standalone="no"?>
<!DOCTYPE svg PUBLIC "-//W3C//DTD SVG 1.1//EN"
 "http://www.w3.org/Graphics/SVG/1.1/DTD/svg11.dtd">
<!-- Generated by graphviz version 2.38.0 (20140413.2041)
 -->
<!-- Title: state_diagram Pages: 1 -->
<svg width="227pt" height="356pt"
 viewBox="0.00 0.00 226.85 356.00" xmlns="http://www.w3.org/2000/svg" xmlns:xlink="http://www.w3.org/1999/xlink">
<g id="graph0" class="graph" transform="scale(1 1) rotate(0) translate(4 352)">
<title>state_diagram</title>
<polygon fill="white" stroke="none" points="-4,4 -4,-352 222.851,-352 222.851,4 -4,4"/>
<!-- A0 -->
<g id="node1" class="node"><title>A0</title>
<ellipse fill="none" stroke="black" cx="104.855" cy="-337" rx="11" ry="11"/>
</g>
<!-- A1 -->
<g id="node2" class="node"><title>A1</title>
<path fill="none" stroke="black" d="M66.3295,-241.5C66.3295,-241.5 143.381,-241.5 143.381,-241.5 149.381,-241.5 155.381,-247.5 155.381,-253.5 155.381,-253.5 155.381,-265.5 155.381,-265.5 155.381,-271.5 149.381,-277.5 143.381,-277.5 143.381,-277.5 66.3295,-277.5 66.3295,-277.5 60.3295,-277.5 54.3295,-271.5 54.3295,-265.5 54.3295,-265.5 54.3295,-253.5 54.3295,-253.5 54.3295,-247.5 60.3295,-241.5 66.3295,-241.5"/>
<text text-anchor="middle" x="104.855" y="-256.5" font-family="Times,serif" font-size="10.00">Simulator running</text>
</g>
<!-- A0&#45;&gt;A1 -->
<g id="edge1" class="edge"><title>A0&#45;&gt;A1</title>
<path fill="none" stroke="black" d="M104.855,-325.818C104.855,-316.099 104.855,-301.021 104.855,-287.799"/>
<polygon fill="black" stroke="black" points="104.855,-277.731 109.355,-287.731 104.855,-282.731 104.855,-287.731 104.855,-287.731 104.855,-287.731 104.855,-282.731 100.355,-287.731 104.855,-277.731 104.855,-277.731"/>
<text text-anchor="middle" x="117.627" y="-299" font-family="Times,serif" font-size="10.00">[Start]</text>
</g>
<!-- A2 -->
<g id="node3" class="node"><title>A2</title>
<path fill="none" stroke="black" d="M12,-152.5C12,-152.5 85.71,-152.5 85.71,-152.5 91.71,-152.5 97.71,-158.5 97.71,-164.5 97.71,-164.5 97.71,-180.5 97.71,-180.5 97.71,-186.5 91.71,-192.5 85.71,-192.5 85.71,-192.5 12,-192.5 12,-192.5 6,-192.5 1.42109e-14,-186.5 1.42109e-14,-180.5 1.42109e-14,-180.5 1.42109e-14,-164.5 1.42109e-14,-164.5 1.42109e-14,-158.5 6,-152.5 12,-152.5"/>
<text text-anchor="middle" x="48.855" y="-179.5" font-family="Times,serif" font-size="10.00">Simulator paused</text>
<polyline fill="none" stroke="black" points="1.42109e-14,-172.5 97.71,-172.5 "/>
<text text-anchor="middle" x="48.855" y="-159.5" font-family="Times,serif" font-size="10.00">do / wait</text>
</g>
<!-- A1&#45;&gt;A2 -->
<g id="edge2" class="edge"><title>A1&#45;&gt;A2</title>
<path fill="none" stroke="black" d="M54.0598,-246.259C42.5692,-241.02 31.7449,-233.571 24.871,-223 20.552,-216.358 21.5518,-208.822 24.8764,-201.669"/>
<polygon fill="black" stroke="black" points="30.1056,-192.909 28.8435,-203.802 27.5427,-197.202 24.9797,-201.495 24.9797,-201.495 24.9797,-201.495 27.5427,-197.202 21.1158,-199.189 30.1056,-192.909 30.1056,-192.909"/>
<text text-anchor="middle" x="40.847" y="-214" font-family="Times,serif" font-size="10.00">[Pause]</text>
</g>
<!-- A3 -->
<g id="node4" class="node"><title>A3</title>
<ellipse fill="none" stroke="black" cx="180.855" cy="-15" rx="11" ry="11"/>
<ellipse fill="none" stroke="black" cx="180.855" cy="-15" rx="15" ry="15"/>
</g>
<!-- A1&#45;&gt;A3 -->
<g id="edge3" class="edge"><title>A1&#45;&gt;A3</title>
<path fill="none" stroke="black" d="M133.626,-241.407C150.018,-229.957 169.168,-213.281 178.855,-193 202.861,-142.738 193.877,-74.9224 186.583,-39.6041"/>
<polygon fill="black" stroke="black" points="184.412,-29.742 190.957,-38.5408 185.487,-34.6251 186.562,-39.5082 186.562,-39.5082 186.562,-39.5082 185.487,-34.6251 182.167,-40.4756 184.412,-29.742 184.412,-29.742"/>
<text text-anchor="middle" x="206.353" y="-125" font-family="Times,serif" font-size="10.00">[Stop]</text>
</g>
<!-- A2&#45;&gt;A1 -->
<g id="edge5" class="edge"><title>A2&#45;&gt;A1</title>
<path fill="none" stroke="black" d="M59.535,-192.602C64.9066,-201.918 71.6558,-213.201 78.211,-223 80.4604,-226.363 82.9077,-229.839 85.3773,-233.241"/>
<polygon fill="black" stroke="black" points="91.4614,-241.438 81.8879,-236.09 88.4813,-237.423 85.5012,-233.408 85.5012,-233.408 85.5012,-233.408 88.4813,-237.423 89.1146,-230.726 91.4614,-241.438 91.4614,-241.438"/>
<text text-anchor="middle" x="99.677" y="-214" font-family="Times,serif" font-size="10.00">[Unpause]</text>
</g>
<!-- A4 -->
<g id="node5" class="node"><title>A4</title>
<path fill="none" stroke="black" d="M105.895,-67.5C105.895,-67.5 161.816,-67.5 161.816,-67.5 167.816,-67.5 173.816,-73.5 173.816,-79.5 173.816,-79.5 173.816,-91.5 173.816,-91.5 173.816,-97.5 167.816,-103.5 161.816,-103.5 161.816,-103.5 105.895,-103.5 105.895,-103.5 99.8945,-103.5 93.8945,-97.5 93.8945,-91.5 93.8945,-91.5 93.8945,-79.5 93.8945,-79.5 93.8945,-73.5 99.8945,-67.5 105.895,-67.5"/>
<text text-anchor="middle" x="133.855" y="-82.5" font-family="Times,serif" font-size="10.00">Log retrieval</text>
</g>
<!-- A2&#45;&gt;A4 -->
<g id="edge6" class="edge"><title>A2&#45;&gt;A4</title>
<path fill="none" stroke="black" d="M46.2854,-152.034C46.0071,-142.187 47.3522,-130.545 53.507,-122 61.0325,-111.553 72.3336,-104.135 84.1014,-98.885"/>
<polygon fill="black" stroke="black" points="93.5757,-95.123 85.9423,-102.996 88.9286,-96.9683 84.2816,-98.8135 84.2816,-98.8135 84.2816,-98.8135 88.9286,-96.9683 82.6208,-94.6312 93.5757,-95.123 93.5757,-95.123"/>
<text text-anchor="middle" x="87.029" y="-125" font-family="Times,serif" font-size="10.00">[Data requested]</text>
</g>
<!-- A4&#45;&gt;A1 -->
<g id="edge4" class="edge"><title>A4&#45;&gt;A1</title>
<path fill="none" stroke="black" d="M133.721,-103.595C133.156,-129.728 130.623,-181.002 119.855,-223 119.123,-225.856 118.198,-228.78 117.169,-231.665"/>
<polygon fill="black" stroke="black" points="113.396,-241.163 112.906,-230.208 115.242,-236.516 117.088,-231.869 117.088,-231.869 117.088,-231.869 115.242,-236.516 121.27,-233.531 113.396,-241.163 113.396,-241.163"/>
<text text-anchor="middle" x="153.517" y="-169.5" font-family="Times,serif" font-size="10.00">[Continue]</text>
</g>
<!-- A4&#45;&gt;A3 -->
<g id="edge7" class="edge"><title>A4&#45;&gt;A3</title>
<path fill="none" stroke="black" d="M145.715,-67.2146C152.128,-57.8684 160.088,-46.2674 166.809,-36.4712"/>
<polygon fill="black" stroke="black" points="172.554,-28.0986 170.607,-38.8902 169.725,-32.2214 166.896,-36.3443 166.896,-36.3443 166.896,-36.3443 169.725,-32.2214 163.186,-33.7983 172.554,-28.0986 172.554,-28.0986"/>
</g>
</g>
</svg>
