<?xml version="1.0" encoding="UTF-8" standalone="no"?>
<!DOCTYPE svg PUBLIC "-//W3C//DTD SVG 1.1//EN"
 "http://www.w3.org/Graphics/SVG/1.1/DTD/svg11.dtd">
<!-- Generated by graphviz version 2.38.0 (20140413.2041)
 -->
<!-- Title: G Pages: 1 -->
<svg width="743pt" height="140pt"
 viewBox="0.00 0.00 742.90 140.00" xmlns="http://www.w3.org/2000/svg" xmlns:xlink="http://www.w3.org/1999/xlink">
<g id="graph0" class="graph" transform="scale(1 1) rotate(0) translate(4 136)">
<title>G</title>
<polygon fill="white" stroke="none" points="-4,4 -4,-136 738.9,-136 738.9,4 -4,4"/>
<!-- A0 -->
<g id="node1" class="node"><title>A0</title>
<ellipse fill="none" stroke="black" cx="11" cy="-95.5" rx="11" ry="11"/>
</g>
<!-- A1 -->
<g id="node2" class="node"><title>A1</title>
<path fill="none" stroke="black" d="M71,-77.5C71,-77.5 131.091,-77.5 131.091,-77.5 137.091,-77.5 143.091,-83.5 143.091,-89.5 143.091,-89.5 143.091,-101.5 143.091,-101.5 143.091,-107.5 137.091,-113.5 131.091,-113.5 131.091,-113.5 71,-113.5 71,-113.5 65,-113.5 59,-107.5 59,-101.5 59,-101.5 59,-89.5 59,-89.5 59,-83.5 65,-77.5 71,-77.5"/>
<text text-anchor="end" x="129.091" y="-98.5" font-family="Times,serif" font-size="10.00">Parse .YUML</text>
<text text-anchor="middle" x="101.045" y="-86.5" font-family="Times,serif" font-size="10.00">file</text>
</g>
<!-- A0&#45;&gt;A1 -->
<g id="edge1" class="edge"><title>A0&#45;&gt;A1</title>
<path fill="none" stroke="black" d="M22.0999,-95.5C28.9431,-95.5 38.5611,-95.5 48.7126,-95.5"/>
<polygon fill="black" stroke="black" points="58.959,-95.5 48.959,-100 53.959,-95.5 48.959,-95.5001 48.959,-95.5001 48.959,-95.5001 53.959,-95.5 48.9589,-91.0001 58.959,-95.5 58.959,-95.5"/>
</g>
<!-- A2 -->
<g id="node3" class="node"><title>A2</title>
<path fill="none" stroke="black" d="M192.091,-77.5C192.091,-77.5 247.732,-77.5 247.732,-77.5 253.732,-77.5 259.732,-83.5 259.732,-89.5 259.732,-89.5 259.732,-101.5 259.732,-101.5 259.732,-107.5 253.732,-113.5 247.732,-113.5 247.732,-113.5 192.091,-113.5 192.091,-113.5 186.091,-113.5 180.091,-107.5 180.091,-101.5 180.091,-101.5 180.091,-89.5 180.091,-89.5 180.091,-83.5 186.091,-77.5 192.091,-77.5"/>
<text text-anchor="end" x="245.732" y="-98.5" font-family="Times,serif" font-size="10.00">Create .DOT</text>
<text text-anchor="middle" x="219.912" y="-86.5" font-family="Times,serif" font-size="10.00">document</text>
</g>
<!-- A1&#45;&gt;A2 -->
<g id="edge2" class="edge"><title>A1&#45;&gt;A2</title>
<path fill="none" stroke="black" d="M143.248,-95.5C151.845,-95.5 160.987,-95.5 169.836,-95.5"/>
<polygon fill="black" stroke="black" points="180.039,-95.5 170.039,-100 175.039,-95.5 170.039,-95.5001 170.039,-95.5001 170.039,-95.5001 175.039,-95.5 170.039,-91.0001 180.039,-95.5 180.039,-95.5"/>
</g>
<!-- A3 -->
<g id="node4" class="node"><title>A3</title>
<path fill="none" stroke="black" d="M308.732,-77.5C308.732,-77.5 371.312,-77.5 371.312,-77.5 377.312,-77.5 383.312,-83.5 383.312,-89.5 383.312,-89.5 383.312,-101.5 383.312,-101.5 383.312,-107.5 377.312,-113.5 371.312,-113.5 371.312,-113.5 308.732,-113.5 308.732,-113.5 302.732,-113.5 296.732,-107.5 296.732,-101.5 296.732,-101.5 296.732,-89.5 296.732,-89.5 296.732,-83.5 302.732,-77.5 308.732,-77.5"/>
<text text-anchor="middle" x="340.022" y="-92.5" font-family="Times,serif" font-size="10.00">Generate SVG</text>
</g>
<!-- A2&#45;&gt;A3 -->
<g id="edge3" class="edge"><title>A2&#45;&gt;A3</title>
<path fill="none" stroke="black" d="M259.913,-95.5C268.316,-95.5 277.334,-95.5 286.165,-95.5"/>
<polygon fill="black" stroke="black" points="296.398,-95.5 286.398,-100 291.398,-95.5 286.398,-95.5001 286.398,-95.5001 286.398,-95.5001 291.398,-95.5 286.398,-91.0001 296.398,-95.5 296.398,-95.5"/>
</g>
<!-- A4 -->
<g id="node5" class="node"><title>A4</title>
<path fill="none" stroke="black" d="M486.312,-95.5C486.312,-95.5 530.844,-95.5 530.844,-95.5 536.844,-95.5 542.844,-101.5 542.844,-107.5 542.844,-107.5 542.844,-119.5 542.844,-119.5 542.844,-125.5 536.844,-131.5 530.844,-131.5 530.844,-131.5 486.312,-131.5 486.312,-131.5 480.312,-131.5 474.312,-125.5 474.312,-119.5 474.312,-119.5 474.312,-107.5 474.312,-107.5 474.312,-101.5 480.312,-95.5 486.312,-95.5"/>
<text text-anchor="end" x="528.844" y="-116.5" font-family="Times,serif" font-size="10.00">Output to</text>
<text text-anchor="middle" x="508.578" y="-104.5" font-family="Times,serif" font-size="10.00">Previewer</text>
</g>
<!-- A3&#45;&gt;A4 -->
<g id="edge4" class="edge"><title>A3&#45;&gt;A4</title>
<path fill="none" stroke="black" d="M383.482,-100.089C408.107,-102.75 439.058,-106.095 463.889,-108.778"/>
<polygon fill="black" stroke="black" points="474.12,-109.884 463.695,-113.284 469.149,-109.347 464.178,-108.81 464.178,-108.81 464.178,-108.81 469.149,-109.347 464.662,-104.336 474.12,-109.884 474.12,-109.884"/>
</g>
<!-- A6 -->
<g id="node7" class="node"><title>A6</title>
<polygon fill="none" stroke="black" points="438.312,-85.5 420.312,-67.5 438.312,-49.5 456.312,-67.5 438.312,-85.5"/>
</g>
<!-- A3&#45;&gt;A6 -->
<g id="edge6" class="edge"><title>A3&#45;&gt;A6</title>
<path fill="none" stroke="black" d="M383.536,-83.1373C393.965,-80.1047 404.751,-76.9683 413.901,-74.3076"/>
<polygon fill="black" stroke="black" points="423.771,-71.4375 415.425,-78.5509 418.97,-72.8337 414.169,-74.2298 414.169,-74.2298 414.169,-74.2298 418.97,-72.8337 412.912,-69.9088 423.771,-71.4375 423.771,-71.4375"/>
</g>
<!-- A5 -->
<g id="node6" class="node"><title>A5</title>
<polygon fill="lightgrey" stroke="black" points="667.9,-91.5 663.9,-91.5 663.9,-55.5 667.9,-55.5 667.9,-91.5"/>
</g>
<!-- A4&#45;&gt;A5 -->
<g id="edge5" class="edge"><title>A4&#45;&gt;A5</title>
<path fill="none" stroke="black" d="M543.021,-111.286C571.396,-108.447 612.67,-102.012 645.9,-87.5 649.42,-85.9627 652.91,-83.6738 655.92,-81.39"/>
<polygon fill="black" stroke="black" points="663.648,-74.7459 658.999,-84.6774 659.857,-78.0055 656.065,-81.2651 656.065,-81.2651 656.065,-81.2651 659.857,-78.0055 653.132,-77.8528 663.648,-74.7459 663.648,-74.7459"/>
</g>
<!-- A8 -->
<g id="node9" class="node"><title>A8</title>
<ellipse fill="none" stroke="black" cx="719.9" cy="-73.5" rx="11" ry="11"/>
<ellipse fill="none" stroke="black" cx="719.9" cy="-73.5" rx="15" ry="15"/>
</g>
<!-- A5&#45;&gt;A8 -->
<g id="edge10" class="edge"><title>A5&#45;&gt;A8</title>
<path fill="none" stroke="black" d="M668.185,-73.5C671.954,-73.5 683.41,-73.5 694.482,-73.5"/>
<polygon fill="black" stroke="black" points="704.717,-73.5 694.717,-78.0001 699.717,-73.5 694.717,-73.5001 694.717,-73.5001 694.717,-73.5001 699.717,-73.5 694.716,-69.0001 704.717,-73.5 704.717,-73.5"/>
</g>
<!-- A6&#45;&gt;A5 -->
<g id="edge7" class="edge"><title>A6&#45;&gt;A5</title>
<path fill="none" stroke="black" d="M455.9,-67.9412C499.542,-69.1019 616.732,-72.2189 653.621,-73.2"/>
<polygon fill="black" stroke="black" points="663.893,-73.4732 653.777,-77.7056 658.894,-73.3402 653.896,-73.2072 653.896,-73.2072 653.896,-73.2072 658.894,-73.3402 654.016,-68.7088 663.893,-73.4732 663.893,-73.4732"/>
<text text-anchor="middle" x="593.872" y="-75.5" font-family="Times,serif" font-size="10.00">[generate: false]</text>
</g>
<!-- A7 -->
<g id="node8" class="node"><title>A7</title>
<path fill="none" stroke="black" d="M572.844,-0.5C572.844,-0.5 614.9,-0.5 614.9,-0.5 620.9,-0.5 626.9,-6.5 626.9,-12.5 626.9,-12.5 626.9,-24.5 626.9,-24.5 626.9,-30.5 620.9,-36.5 614.9,-36.5 614.9,-36.5 572.844,-36.5 572.844,-36.5 566.844,-36.5 560.844,-30.5 560.844,-24.5 560.844,-24.5 560.844,-12.5 560.844,-12.5 560.844,-6.5 566.844,-0.5 572.844,-0.5"/>
<text text-anchor="end" x="612.9" y="-21.5" font-family="Times,serif" font-size="10.00">Output to</text>
<text text-anchor="middle" x="593.872" y="-9.5" font-family="Times,serif" font-size="10.00">File</text>
</g>
<!-- A6&#45;&gt;A7 -->
<g id="edge8" class="edge"><title>A6&#45;&gt;A7</title>
<path fill="none" stroke="black" d="M449.648,-60.5698C456.42,-56.2912 465.601,-50.9743 474.312,-47.5 498.915,-37.6869 527.759,-30.5427 550.837,-25.8007"/>
<polygon fill="black" stroke="black" points="560.67,-23.8524 551.736,-30.2101 555.766,-24.8242 550.861,-25.7959 550.861,-25.7959 550.861,-25.7959 555.766,-24.8242 549.987,-21.3817 560.67,-23.8524 560.67,-23.8524"/>
<text text-anchor="middle" x="508.578" y="-50.5" font-family="Times,serif" font-size="10.00">[generate: true]</text>
</g>
<!-- A7&#45;&gt;A5 -->
<g id="edge9" class="edge"><title>A7&#45;&gt;A5</title>
<path fill="none" stroke="black" d="M617.802,-36.5091C630.646,-46.5969 645.963,-58.6269 655.562,-66.1662"/>
<polygon fill="black" stroke="black" points="663.714,-72.5684 653.07,-69.9307 659.782,-69.4801 655.85,-66.3917 655.85,-66.3917 655.85,-66.3917 659.782,-69.4801 658.629,-62.8527 663.714,-72.5684 663.714,-72.5684"/>
</g>
</g>
</svg>
