<?xml version="1.0" encoding="UTF-8" standalone="no"?>
<!DOCTYPE svg PUBLIC "-//W3C//DTD SVG 1.1//EN"
 "http://www.w3.org/Graphics/SVG/1.1/DTD/svg11.dtd">
<!-- Generated by graphviz version 2.38.0 (20140413.2041)
 -->
<!-- Title: G Pages: 1 -->
<svg width="768pt" height="140pt"
 viewBox="0.00 0.00 767.83 140.00" xmlns="http://www.w3.org/2000/svg" xmlns:xlink="http://www.w3.org/1999/xlink">
<g id="graph0" class="graph" transform="scale(1 1) rotate(0) translate(4 136)">
<title>G</title>
<polygon fill="white" stroke="none" points="-4,4 -4,-136 763.833,-136 763.833,4 -4,4"/>
<!-- A0 -->
<g id="node1" class="node"><title>A0</title>
<ellipse fill="none" stroke="black" cx="11" cy="-95.5" rx="11" ry="11"/>
</g>
<!-- A1 -->
<g id="node2" class="node"><title>A1</title>
<path fill="none" stroke="black" d="M71,-77.5C71,-77.5 134.45,-77.5 134.45,-77.5 140.45,-77.5 146.45,-83.5 146.45,-89.5 146.45,-89.5 146.45,-101.5 146.45,-101.5 146.45,-107.5 140.45,-113.5 134.45,-113.5 134.45,-113.5 71,-113.5 71,-113.5 65,-113.5 59,-107.5 59,-101.5 59,-101.5 59,-89.5 59,-89.5 59,-83.5 65,-77.5 71,-77.5"/>
<text text-anchor="end" x="132.45" y="-98.5" font-family="Helvetica,sans-Serif" font-size="10.00">Parse .YUML</text>
<text text-anchor="middle" x="102.725" y="-86.5" font-family="Helvetica,sans-Serif" font-size="10.00">file</text>
</g>
<!-- A0&#45;&gt;A1 -->
<g id="edge1" class="edge"><title>A0&#45;&gt;A1</title>
<path fill="none" stroke="black" d="M22.2926,-95.5C29.0592,-95.5 38.488,-95.5 48.4926,-95.5"/>
<polygon fill="black" stroke="black" points="58.6118,-95.5 48.6119,-100 53.6118,-95.5 48.6118,-95.5001 48.6118,-95.5001 48.6118,-95.5001 53.6118,-95.5 48.6118,-91.0001 58.6118,-95.5 58.6118,-95.5"/>
</g>
<!-- A2 -->
<g id="node3" class="node"><title>A2</title>
<path fill="none" stroke="black" d="M195.45,-77.5C195.45,-77.5 256.119,-77.5 256.119,-77.5 262.119,-77.5 268.119,-83.5 268.119,-89.5 268.119,-89.5 268.119,-101.5 268.119,-101.5 268.119,-107.5 262.119,-113.5 256.119,-113.5 256.119,-113.5 195.45,-113.5 195.45,-113.5 189.45,-113.5 183.45,-107.5 183.45,-101.5 183.45,-101.5 183.45,-89.5 183.45,-89.5 183.45,-83.5 189.45,-77.5 195.45,-77.5"/>
<text text-anchor="end" x="254.119" y="-98.5" font-family="Helvetica,sans-Serif" font-size="10.00">Create .DOT</text>
<text text-anchor="middle" x="225.784" y="-86.5" font-family="Helvetica,sans-Serif" font-size="10.00">document</text>
</g>
<!-- A1&#45;&gt;A2 -->
<g id="edge2" class="edge"><title>A1&#45;&gt;A2</title>
<path fill="none" stroke="black" d="M146.747,-95.5C155.246,-95.5 164.25,-95.5 173.003,-95.5"/>
<polygon fill="black" stroke="black" points="183.12,-95.5 173.12,-100 178.12,-95.5 173.12,-95.5001 173.12,-95.5001 173.12,-95.5001 178.12,-95.5 173.12,-91.0001 183.12,-95.5 183.12,-95.5"/>
</g>
<!-- A3 -->
<g id="node4" class="node"><title>A3</title>
<path fill="none" stroke="black" d="M317.119,-77.5C317.119,-77.5 386.697,-77.5 386.697,-77.5 392.697,-77.5 398.697,-83.5 398.697,-89.5 398.697,-89.5 398.697,-101.5 398.697,-101.5 398.697,-107.5 392.697,-113.5 386.697,-113.5 386.697,-113.5 317.119,-113.5 317.119,-113.5 311.119,-113.5 305.119,-107.5 305.119,-101.5 305.119,-101.5 305.119,-89.5 305.119,-89.5 305.119,-83.5 311.119,-77.5 317.119,-77.5"/>
<text text-anchor="middle" x="351.908" y="-92.5" font-family="Helvetica,sans-Serif" font-size="10.00">Generate SVG</text>
</g>
<!-- A2&#45;&gt;A3 -->
<g id="edge3" class="edge"><title>A2&#45;&gt;A3</title>
<path fill="none" stroke="black" d="M268.461,-95.5C276.864,-95.5 285.828,-95.5 294.635,-95.5"/>
<polygon fill="black" stroke="black" points="304.858,-95.5 294.859,-100 299.858,-95.5 294.858,-95.5001 294.858,-95.5001 294.858,-95.5001 299.858,-95.5 294.858,-91.0001 304.858,-95.5 304.858,-95.5"/>
</g>
<!-- A4 -->
<g id="node5" class="node"><title>A4</title>
<path fill="none" stroke="black" d="M501.697,-95.5C501.697,-95.5 550.139,-95.5 550.139,-95.5 556.139,-95.5 562.139,-101.5 562.139,-107.5 562.139,-107.5 562.139,-119.5 562.139,-119.5 562.139,-125.5 556.139,-131.5 550.139,-131.5 550.139,-131.5 501.697,-131.5 501.697,-131.5 495.697,-131.5 489.697,-125.5 489.697,-119.5 489.697,-119.5 489.697,-107.5 489.697,-107.5 489.697,-101.5 495.697,-95.5 501.697,-95.5"/>
<text text-anchor="end" x="548.139" y="-116.5" font-family="Helvetica,sans-Serif" font-size="10.00">Output to</text>
<text text-anchor="middle" x="525.918" y="-104.5" font-family="Helvetica,sans-Serif" font-size="10.00">Previewer</text>
</g>
<!-- A3&#45;&gt;A4 -->
<g id="edge4" class="edge"><title>A3&#45;&gt;A4</title>
<path fill="none" stroke="black" d="M399.004,-100.324C423.907,-102.93 454.547,-106.136 479.366,-108.733"/>
<polygon fill="black" stroke="black" points="489.613,-109.805 479.199,-113.24 484.64,-109.285 479.667,-108.765 479.667,-108.765 479.667,-108.765 484.64,-109.285 480.136,-104.289 489.613,-109.805 489.613,-109.805"/>
</g>
<!-- A6 -->
<g id="node7" class="node"><title>A6</title>
<polygon fill="none" stroke="black" points="453.697,-85.5 435.697,-67.5 453.697,-49.5 471.697,-67.5 453.697,-85.5"/>
</g>
<!-- A3&#45;&gt;A6 -->
<g id="edge6" class="edge"><title>A3&#45;&gt;A6</title>
<path fill="none" stroke="black" d="M398.714,-82.6473C409.32,-79.6714 420.173,-76.6258 429.341,-74.0534"/>
<polygon fill="black" stroke="black" points="439.213,-71.2835 430.801,-78.3178 434.399,-72.6343 429.585,-73.9851 429.585,-73.9851 429.585,-73.9851 434.399,-72.6343 428.369,-69.6525 439.213,-71.2835 439.213,-71.2835"/>
</g>
<!-- A5 -->
<g id="node6" class="node"><title>A5</title>
<polygon fill="lightgrey" stroke="black" stroke-width="4" points="688.833,-54.5 688.833,-90.5 692.833,-90.5 692.833,-54.5 688.833,-54.5"/>
<text text-anchor="middle" x="690.833" y="-84.6" font-family="Helvetica,sans-Serif" font-size="1.00"> </text>
<polyline fill="none" stroke="black" stroke-width="4" points="688.833,-79.3 692.833,-79.3 "/>
<text text-anchor="middle" x="690.833" y="-72.9" font-family="Helvetica,sans-Serif" font-size="1.00"> </text>
<polyline fill="none" stroke="black" stroke-width="4" points="688.833,-67.1 692.833,-67.1 "/>
<text text-anchor="middle" x="690.833" y="-60.7" font-family="Helvetica,sans-Serif" font-size="1.00"> </text>
</g>
<!-- A4&#45;&gt;A5 -->
<g id="edge5" class="edge"><title>A4&#45;&gt;A5:f1:w</title>
<path fill="none" stroke="black" d="M562.41,-107.064C599.634,-100.322 655.838,-90.1711 678.674,-86.1885"/>
<polygon fill="black" stroke="black" points="688.833,-84.5 679.706,-90.5787 683.901,-85.3198 678.968,-86.1396 678.968,-86.1396 678.968,-86.1396 683.901,-85.3198 678.23,-81.7005 688.833,-84.5 688.833,-84.5"/>
</g>
<!-- A8 -->
<g id="node9" class="node"><title>A8</title>
<ellipse fill="none" stroke="black" cx="744.833" cy="-72.5" rx="11" ry="11"/>
<ellipse fill="none" stroke="black" cx="744.833" cy="-72.5" rx="15" ry="15"/>
</g>
<!-- A5&#45;&gt;A8 -->
<g id="edge10" class="edge"><title>A5&#45;&gt;A8</title>
<path fill="none" stroke="black" d="M693.118,-72.5C696.887,-72.5 708.343,-72.5 719.415,-72.5"/>
<polygon fill="black" stroke="black" points="729.65,-72.5 719.65,-77.0001 724.65,-72.5 719.65,-72.5001 719.65,-72.5001 719.65,-72.5001 724.65,-72.5 719.649,-68.0001 729.65,-72.5 729.65,-72.5"/>
</g>
<!-- A6&#45;&gt;A5 -->
<g id="edge7" class="edge"><title>A6&#45;&gt;A5:f2:w</title>
<path fill="none" stroke="black" d="M471.157,-68.2118C507.809,-69.736 599.186,-73.2001 678.701,-73.4817"/>
<polygon fill="black" stroke="black" points="688.833,-73.5 678.825,-77.9819 683.833,-73.4909 678.833,-73.4819 678.833,-73.4819 678.833,-73.4819 683.833,-73.4909 678.841,-68.9819 688.833,-73.5 688.833,-73.5"/>
<text text-anchor="middle" x="615.986" y="-76.5" font-family="Helvetica,sans-Serif" font-size="10.00">[generate: false]</text>
</g>
<!-- A7 -->
<g id="node8" class="node"><title>A7</title>
<path fill="none" stroke="black" d="M593.42,-0.5C593.42,-0.5 638.551,-0.5 638.551,-0.5 644.551,-0.5 650.551,-6.5 650.551,-12.5 650.551,-12.5 650.551,-24.5 650.551,-24.5 650.551,-30.5 644.551,-36.5 638.551,-36.5 638.551,-36.5 593.42,-36.5 593.42,-36.5 587.42,-36.5 581.42,-30.5 581.42,-24.5 581.42,-24.5 581.42,-12.5 581.42,-12.5 581.42,-6.5 587.42,-0.5 593.42,-0.5"/>
<text text-anchor="end" x="636.551" y="-21.5" font-family="Helvetica,sans-Serif" font-size="10.00">Output to</text>
<text text-anchor="middle" x="615.986" y="-9.5" font-family="Helvetica,sans-Serif" font-size="10.00">File</text>
</g>
<!-- A6&#45;&gt;A7 -->
<g id="edge8" class="edge"><title>A6&#45;&gt;A7</title>
<path fill="none" stroke="black" d="M465.018,-60.5328C471.785,-56.2395 480.965,-50.9201 489.697,-47.5 515.891,-37.2406 546.651,-30.0551 571.138,-25.403"/>
<polygon fill="black" stroke="black" points="581.216,-23.5627 572.187,-29.7858 576.297,-24.4609 571.379,-25.359 571.379,-25.359 571.379,-25.359 576.297,-24.4609 570.57,-20.9322 581.216,-23.5627 581.216,-23.5627"/>
<text text-anchor="middle" x="525.918" y="-50.5" font-family="Helvetica,sans-Serif" font-size="10.00">[generate: true]</text>
</g>
<!-- A7&#45;&gt;A5 -->
<g id="edge9" class="edge"><title>A7&#45;&gt;A5:f3:w</title>
<path fill="none" stroke="black" d="M635.047,-36.7359C646.395,-46.5328 662.033,-57.2554 678.832,-60.5101"/>
<polygon fill="black" stroke="black" points="688.833,-61.5 678.438,-64.9931 683.857,-61.0075 678.882,-60.515 678.882,-60.515 678.882,-60.515 683.857,-61.0075 679.325,-56.0369 688.833,-61.5 688.833,-61.5"/>
</g>
</g>
</svg>
