<?xml version="1.0" encoding="UTF-8" standalone="no"?>
<!DOCTYPE svg PUBLIC "-//W3C//DTD SVG 1.1//EN"
 "http://www.w3.org/Graphics/SVG/1.1/DTD/svg11.dtd">
<!-- Generated by graphviz version 2.40.1 (20161225.0304)
 -->
<!-- Title: G Pages: 1 -->
<svg width="768pt" height="138pt"
 viewBox="0.00 0.00 767.83 138.00" xmlns="http://www.w3.org/2000/svg" xmlns:xlink="http://www.w3.org/1999/xlink">
<g id="graph0" class="graph" transform="scale(1 1) rotate(0) translate(4 134)">
<title>G</title>
<polygon fill="#ffffff" stroke="transparent" points="-4,4 -4,-134 763.833,-134 763.833,4 -4,4"/>
<!-- A0 -->
<g id="node1" class="node">
<title>A0</title>
<ellipse fill="none" stroke="#000000" cx="11" cy="-89" rx="11" ry="11"/>
</g>
<!-- A1 -->
<g id="node2" class="node">
<title>A1</title>
<path fill="none" stroke="#000000" d="M134.6762,-107C134.6762,-107 70.7738,-107 70.7738,-107 64.7738,-107 58.7738,-101 58.7738,-95 58.7738,-95 58.7738,-83 58.7738,-83 58.7738,-77 64.7738,-71 70.7738,-71 70.7738,-71 134.6762,-71 134.6762,-71 140.6762,-71 146.6762,-77 146.6762,-83 146.6762,-83 146.6762,-95 146.6762,-95 146.6762,-101 140.6762,-107 134.6762,-107"/>
<text text-anchor="end" x="132.45" y="-92" font-family="Helvetica,sans-Serif" font-size="10.00" fill="#000000">Parse .YUML</text>
<text text-anchor="middle" x="102.725" y="-80" font-family="Helvetica,sans-Serif" font-size="10.00" fill="#000000">file</text>
</g>
<!-- A0&#45;&gt;A1 -->
<g id="edge1" class="edge">
<title>A0&#45;&gt;A1</title>
<path fill="none" stroke="#000000" d="M22.2473,-89C29.2078,-89 38.7114,-89 48.7507,-89"/>
<polygon fill="#000000" stroke="#000000" points="58.8941,-89 48.8942,-93.5001 53.8941,-89 48.8941,-89.0001 48.8941,-89.0001 48.8941,-89.0001 53.8941,-89 48.8941,-84.5001 58.8941,-89 58.8941,-89"/>
</g>
<!-- A2 -->
<g id="node3" class="node">
<title>A2</title>
<path fill="none" stroke="#000000" d="M255.9541,-107C255.9541,-107 195.6149,-107 195.6149,-107 189.6149,-107 183.6149,-101 183.6149,-95 183.6149,-95 183.6149,-83 183.6149,-83 183.6149,-77 189.6149,-71 195.6149,-71 195.6149,-71 255.9541,-71 255.9541,-71 261.9541,-71 267.9541,-77 267.9541,-83 267.9541,-83 267.9541,-95 267.9541,-95 267.9541,-101 261.9541,-107 255.9541,-107"/>
<text text-anchor="end" x="254.119" y="-92" font-family="Helvetica,sans-Serif" font-size="10.00" fill="#000000">Create .DOT</text>
<text text-anchor="middle" x="225.7845" y="-80" font-family="Helvetica,sans-Serif" font-size="10.00" fill="#000000">document</text>
</g>
<!-- A1&#45;&gt;A2 -->
<g id="edge2" class="edge">
<title>A1&#45;&gt;A2</title>
<path fill="none" stroke="#000000" d="M146.4577,-89C155.0974,-89 164.2495,-89 173.148,-89"/>
<polygon fill="#000000" stroke="#000000" points="183.4317,-89 173.4318,-93.5001 178.4317,-89 173.4317,-89.0001 173.4317,-89.0001 173.4317,-89.0001 178.4317,-89 173.4317,-84.5001 183.4317,-89 183.4317,-89"/>
</g>
<!-- A3 -->
<g id="node4" class="node">
<title>A3</title>
<path fill="none" stroke="#000000" d="M386.4869,-107C386.4869,-107 317.3291,-107 317.3291,-107 311.3291,-107 305.3291,-101 305.3291,-95 305.3291,-95 305.3291,-83 305.3291,-83 305.3291,-77 311.3291,-71 317.3291,-71 317.3291,-71 386.4869,-71 386.4869,-71 392.4869,-71 398.4869,-77 398.4869,-83 398.4869,-83 398.4869,-95 398.4869,-95 398.4869,-101 392.4869,-107 386.4869,-107"/>
<text text-anchor="middle" x="351.908" y="-86" font-family="Helvetica,sans-Serif" font-size="10.00" fill="#000000">Generate SVG</text>
</g>
<!-- A2&#45;&gt;A3 -->
<g id="edge3" class="edge">
<title>A2&#45;&gt;A3</title>
<path fill="none" stroke="#000000" d="M268.1327,-89C276.7638,-89 285.9773,-89 295.0199,-89"/>
<polygon fill="#000000" stroke="#000000" points="305.1165,-89 295.1165,-93.5001 300.1165,-89 295.1165,-89.0001 295.1165,-89.0001 295.1165,-89.0001 300.1165,-89 295.1165,-84.5001 305.1165,-89 305.1165,-89"/>
</g>
<!-- A4 -->
<g id="node5" class="node">
<title>A4</title>
<path fill="none" stroke="#000000" d="M550.3614,-130C550.3614,-130 501.4746,-130 501.4746,-130 495.4746,-130 489.4746,-124 489.4746,-118 489.4746,-118 489.4746,-106 489.4746,-106 489.4746,-100 495.4746,-94 501.4746,-94 501.4746,-94 550.3614,-94 550.3614,-94 556.3614,-94 562.3614,-100 562.3614,-106 562.3614,-106 562.3614,-118 562.3614,-118 562.3614,-124 556.3614,-130 550.3614,-130"/>
<text text-anchor="end" x="548.139" y="-115" font-family="Helvetica,sans-Serif" font-size="10.00" fill="#000000">Output to</text>
<text text-anchor="middle" x="525.918" y="-103" font-family="Helvetica,sans-Serif" font-size="10.00" fill="#000000">Previewer</text>
</g>
<!-- A3&#45;&gt;A4 -->
<g id="edge4" class="edge">
<title>A3&#45;&gt;A4</title>
<path fill="none" stroke="#000000" d="M398.5395,-95.1636C423.6681,-98.485 454.5699,-102.5695 479.6435,-105.8836"/>
<polygon fill="#000000" stroke="#000000" points="489.645,-107.2056 479.1415,-110.3563 484.6881,-106.5503 479.7312,-105.8951 479.7312,-105.8951 479.7312,-105.8951 484.6881,-106.5503 480.3209,-101.4339 489.645,-107.2056 489.645,-107.2056"/>
</g>
<!-- A6 -->
<g id="node7" class="node">
<title>A6</title>
<polygon fill="none" stroke="#000000" points="453.697,-84 435.697,-66 453.697,-48 471.697,-66 453.697,-84"/>
</g>
<!-- A3&#45;&gt;A6 -->
<g id="edge6" class="edge">
<title>A3&#45;&gt;A6</title>
<path fill="none" stroke="#000000" d="M398.6317,-78.4424C408.9994,-76.0998 419.5994,-73.7046 428.6954,-71.6493"/>
<polygon fill="#000000" stroke="#000000" points="438.5784,-69.4162 429.8161,-76.0096 433.7013,-70.5182 428.8243,-71.6203 428.8243,-71.6203 428.8243,-71.6203 433.7013,-70.5182 427.8324,-67.2309 438.5784,-69.4162 438.5784,-69.4162"/>
</g>
<!-- A5 -->
<g id="node6" class="node">
<title>A5</title>
<polygon fill="#d3d3d3" stroke="#000000" stroke-width="4" points="688.833,-53 688.833,-89 692.833,-89 692.833,-53 688.833,-53"/>
<text text-anchor="middle" x="690.833" y="-83.1" font-family="Helvetica,sans-Serif" font-size="1.00" fill="#000000"> </text>
<polyline fill="none" stroke="#000000" stroke-width="4" points="688.833,-77.8 692.833,-77.8 "/>
<text text-anchor="middle" x="690.833" y="-71.4" font-family="Helvetica,sans-Serif" font-size="1.00" fill="#000000"> </text>
<polyline fill="none" stroke="#000000" stroke-width="4" points="688.833,-65.6 692.833,-65.6 "/>
<text text-anchor="middle" x="690.833" y="-59.2" font-family="Helvetica,sans-Serif" font-size="1.00" fill="#000000"> </text>
</g>
<!-- A4&#45;&gt;A5 -->
<g id="edge5" class="edge">
<title>A4&#45;&gt;A5:w</title>
<path fill="none" stroke="#000000" d="M562.432,-105.4195C599.944,-98.6681 655.9677,-88.6124 678.7144,-84.6706"/>
<polygon fill="#000000" stroke="#000000" points="688.833,-83 679.6996,-89.0689 683.8998,-83.8145 678.9666,-84.629 678.9666,-84.629 678.9666,-84.629 683.8998,-83.8145 678.2335,-80.1891 688.833,-83 688.833,-83"/>
</g>
<!-- A8 -->
<g id="node9" class="node">
<title>A8</title>
<ellipse fill="none" stroke="#000000" cx="744.833" cy="-71" rx="11" ry="11"/>
<ellipse fill="none" stroke="#000000" cx="744.833" cy="-71" rx="15" ry="15"/>
</g>
<!-- A5&#45;&gt;A8 -->
<g id="edge10" class="edge">
<title>A5&#45;&gt;A8</title>
<path fill="none" stroke="#000000" d="M693.1533,-71C697.8166,-71 708.7917,-71 719.434,-71"/>
<polygon fill="#000000" stroke="#000000" points="729.7192,-71 719.7192,-75.5001 724.7192,-71 719.7192,-71.0001 719.7192,-71.0001 719.7192,-71.0001 724.7192,-71 719.7191,-66.5001 729.7192,-71 729.7192,-71"/>
</g>
<!-- A6&#45;&gt;A5 -->
<g id="edge7" class="edge">
<title>A6&#45;&gt;A5:w</title>
<path fill="none" stroke="#000000" d="M471.097,-66.7478C508.4754,-68.2902 599.4833,-71.7045 678.734,-71.982"/>
<polygon fill="#000000" stroke="#000000" points="688.833,-72 678.825,-76.4821 683.833,-71.991 678.833,-71.9821 678.833,-71.9821 678.833,-71.9821 683.833,-71.991 678.8411,-67.4821 688.833,-72 688.833,-72"/>
<text text-anchor="middle" x="615.986" y="-75" font-family="Helvetica,sans-Serif" font-size="10.00" fill="#000000">[generate: false]</text>
</g>
<!-- A7 -->
<g id="node8" class="node">
<title>A7</title>
<path fill="none" stroke="#000000" d="M638.6171,-36C638.6171,-36 593.3549,-36 593.3549,-36 587.3549,-36 581.3549,-30 581.3549,-24 581.3549,-24 581.3549,-12 581.3549,-12 581.3549,-6 587.3549,0 593.3549,0 593.3549,0 638.6171,0 638.6171,0 644.6171,0 650.6171,-6 650.6171,-12 650.6171,-12 650.6171,-24 650.6171,-24 650.6171,-30 644.6171,-36 638.6171,-36"/>
<text text-anchor="end" x="636.5515" y="-21" font-family="Helvetica,sans-Serif" font-size="10.00" fill="#000000">Output to</text>
<text text-anchor="middle" x="615.986" y="-9" font-family="Helvetica,sans-Serif" font-size="10.00" fill="#000000">File</text>
</g>
<!-- A6&#45;&gt;A7 -->
<g id="edge8" class="edge">
<title>A6&#45;&gt;A7</title>
<path fill="none" stroke="#000000" d="M464.6428,-58.8251C471.5776,-54.5607 480.8731,-49.348 489.697,-46 515.8777,-36.0665 546.5145,-29.167 571.0558,-24.7026"/>
<polygon fill="#000000" stroke="#000000" points="581.1696,-22.9366 572.0927,-29.0897 576.2441,-23.7967 571.3186,-24.6568 571.3186,-24.6568 571.3186,-24.6568 576.2441,-23.7967 570.5445,-20.2239 581.1696,-22.9366 581.1696,-22.9366"/>
<text text-anchor="middle" x="525.918" y="-49" font-family="Helvetica,sans-Serif" font-size="10.00" fill="#000000">[generate: true]</text>
</g>
<!-- A7&#45;&gt;A5 -->
<g id="edge9" class="edge">
<title>A7&#45;&gt;A5:w</title>
<path fill="none" stroke="#000000" d="M634.7134,-36.0555C646.2587,-45.5714 662.0382,-55.9101 678.8438,-59.0464"/>
<polygon fill="#000000" stroke="#000000" points="688.833,-60 678.4506,-63.5292 683.8556,-59.5248 678.8783,-59.0496 678.8783,-59.0496 678.8783,-59.0496 683.8556,-59.5248 679.306,-54.5699 688.833,-60 688.833,-60"/>
</g>
</g>
</svg>
